<?xml version="1.0" encoding="utf-8"?>
<!-- Generator: Adobe Illustrator 24.3.0, SVG Export Plug-In . SVG Version: 6.00 Build 0)  -->
<svg version="1.1" id="Calque_1" xmlns="http://www.w3.org/2000/svg" xmlns:xlink="http://www.w3.org/1999/xlink" x="0px" y="0px"
	 viewBox="0 0 500 500" style="enable-background:new 0 0 500 500;" xml:space="preserve">
<style type="text/css">
	.st0{fill:#E0C10E;}
	.st1{fill:#CFB091;}
	.st2{fill:#30302F;}
	.st3{fill:#1C75BC;}
	.st4{fill:#155F99;}
	.st5{fill:#808285;}
	.st6{fill:#BCBEC0;}
	.st7{fill:#D1D3D4;}
	.st8{fill:#AA0C27;}
	.st9{fill:#0E76AA;}
	.st10{fill:#FFFFFF;}
	.st11{fill:#E6E7E8;}
	.st12{fill:#8DC63F;}
	.st13{fill:#39B54A;}
	.st14{fill:#092942;}
	.st15{fill:#FBB040;}
	.st16{fill:#F98C6E;}
	.st17{fill:#9C681C;}
	.st18{opacity:0.25;fill:#231F20;enable-background:new    ;}
	.st19{fill:#E67A5C;}
	.st20{fill:#051D2E;}
	.st21{fill:#0E4066;}
	.st22{fill:#D1684B;}
	.st23{fill:#E1E2E0;}
	.st24{fill:#C3C4C2;}
	.st25{fill:#92C6F0;}
	.st26{fill:#A6D7FF;}
	.st27{opacity:5.000000e-02;}
</style>
<g id="OBJECTS">
	<path class="st0" d="M387.4,347.7c28.3-32.8,43.8-74.7,43.7-118c0-100-81.1-181.1-181.1-181.1s-181.1,81-181.1,181.1
		c-0.1,43.3,15.5,85.2,43.7,118L387.4,347.7z"/>
	<ellipse class="st1" cx="142.7" cy="401.4" rx="37.1" ry="8.4"/>
	<path class="st1" d="M378.5,409.6c-7.7,0-15.1,0.2-21.8,0.6c4.7-1.3,7.4-2.8,7.4-4.4c0-5.1-27.1-9.2-60.6-9.2s-60.6,4.1-60.6,9.2
		s27.1,9.2,60.6,9.2c8.6,0,16.8-0.3,24.2-0.8c-3.7,1.1-5.7,2.4-5.7,3.7c0,4.6,25.4,8.4,56.7,8.4s56.7-3.7,56.7-8.4
		S409.8,409.6,378.5,409.6z"/>
	<path class="st1" d="M215,414.3h-3.3c2.1-1,3.3-2.1,3.3-3.2c0-5-23-9-51.3-9s-51.3,4-51.3,9s22.8,8.9,51,9c-5.1,1.7-8,3.7-8,5.8
		c0,6.4,26.7,11.6,59.7,11.6s59.7-5.2,59.7-11.6S248,414.3,215,414.3z"/>
	<ellipse class="st1" cx="421.5" cy="401.2" rx="12.3" ry="3.4"/>
	<path class="st1" d="M401.1,395.3c0,0.8-2.5,1.4-5.5,1.4s-5.5-0.6-5.5-1.4s2.5-1.4,5.5-1.4S401.1,394.5,401.1,395.3z"/>
	<ellipse class="st1" cx="227.1" cy="397.6" rx="6.1" ry="1.8"/>
	<path class="st1" d="M254.8,391.6c0,0.7-1.7,1.3-3.8,1.3s-3.8-0.6-3.8-1.3s1.7-1.3,3.8-1.3S254.8,390.9,254.8,391.6z"/>
	<path d="M105.6,392c-5.9-16.8-11.8-33.7-21.1-48.9s-22.3-28.7-38.7-35.4c5.6,21.4,11.1,43.9,25.6,60.6
		C80.7,379,92.9,385.7,105.6,392z"/>
	<path class="st2" d="M99.7,378.2c-3.7-7-7.6-13.9-11.6-20.6c-2.3-3.7-4.6-7.4-7-11.1c-5.2-7.8-11.2-15.5-19.4-20
		c3.3,8.7,6.6,17.3,10.2,25.9c2.9,6.7,6,13.3,10.3,19.2c3.6,4.8,7.7,9.1,12.4,12.9c2.3,1.9,4.7,3.8,7.1,5.5c0,0,0.1,0,0.1,0.1l3.9,2
		c-1-2.8-1.9-5.5-2.9-8.3C101.7,381.9,100.7,380.1,99.7,378.2z"/>
	<path d="M99.3,387.8c-8.6-7.7-17.2-15.5-27.2-21.2s-21.6-9.4-33-8c9.8,10.4,20,21.5,33.4,26.4C81.1,388.1,90.1,388.1,99.3,387.8z"
		/>
	<path class="st2" d="M91.7,381.7c-4.3-2.8-8.6-5.5-13-8.1c-2.5-1.4-4.9-2.8-7.4-4.1c-5.4-2.8-11.2-5.4-17.3-5.3
		c4.6,3.9,9.1,7.8,13.8,11.5c3.6,3,7.6,5.6,11.8,7.7c3.5,1.6,7.2,2.7,11,3.4c1.9,0.4,3.8,0.7,5.8,0.9h0.1l2.8-0.1
		c-1.4-1.3-2.8-2.5-4.2-3.8L91.7,381.7z"/>
	<path d="M94.3,350c-0.4-11.5-0.8-23.1-3.7-34.3s-8.3-22-17.2-29.3c-0.6,14.3-1.5,29.3,4.3,42.4C81.3,337.2,87.6,343.6,94.3,350z"/>
	<path class="st2" d="M93.3,340.3c-1-5-2-10-3.3-15c-0.7-2.8-1.4-5.5-2.2-8.2c-1.7-5.8-3.9-11.8-8.2-16.1c0.4,6,0.8,12,1.4,18
		c0.4,4.7,1.3,9.3,2.7,13.9c1.3,3.6,3.1,7.1,5.2,10.3c1.1,1.6,2.2,3.2,3.3,4.8v0.1c0.7,0.7,1.3,1.3,2,2c-0.1-1.9-0.1-3.8-0.2-5.7
		C93.8,343,93.5,341.6,93.3,340.3z"/>
	<path d="M296.5,369.2c6.9-9.2,13.8-18.6,18.6-29.1s7.3-22.4,4.9-33.6c-9.4,10.8-19.5,21.9-23.2,35.7
		C294.4,351.1,295.3,360.1,296.5,369.2z"/>
	<path class="st2" d="M301.8,361c2.4-4.5,4.7-9.1,6.8-13.7c1.2-2.6,2.3-5.2,3.4-7.8c2.3-5.6,4.3-11.6,3.6-17.7
		c-3.5,4.9-6.9,9.8-10.2,14.9c-2.7,3.9-4.9,8.1-6.6,12.5c-1.2,3.7-2.1,7.5-2.4,11.3c-0.2,1.9-0.3,3.9-0.4,5.8v0.1
		c0.1,0.9,0.2,1.9,0.3,2.8c1.1-1.5,2.3-3,3.4-4.6C300.5,363.4,301.1,362.2,301.8,361z"/>
	<path d="M301.5,345.8c3.5-9.3,7-18.7,8.5-28.5s0.7-20.2-3.9-29c-5.2,11.2-10.9,22.8-10.7,35.1C295.5,331.3,298.4,338.6,301.5,345.8
		z"/>
	<path class="st2" d="M303.9,337.8c0.9-4.3,1.7-8.6,2.4-13c0.4-2.4,0.7-4.8,0.9-7.3c0.5-5.2,0.8-10.6-1.2-15.5
		c-1.7,4.9-3.4,9.8-4.9,14.7c-1.3,3.9-2.1,7.8-2.5,11.9c-0.2,3.3,0.1,6.7,0.7,9.9c0.3,1.6,0.7,3.3,1.1,4.9c0,0,0,0,0,0.1
		c0.3,0.8,0.6,1.5,1,2.3l1.7-4.6C303.5,340.1,303.7,338.9,303.9,337.8z"/>
	<path class="st3" d="M300.9,149.8c-7.4-9.8-17-17.7-28-23c-2.1,28.2-3.2,56.6-2.6,84.9c7.6-4,15-8.4,21.4-14.1s11.6-13,13.7-21.3
		C307.8,166.8,306.1,156.7,300.9,149.8z"/>
	<path class="st4" d="M274.3,127.6c-0.8,0.9-1.4,2-1.7,3.2c0,0,0,0,0,0.1c-0.2,3.2-0.5,6.4-0.6,9.6c-0.1,11.2-0.2,22.4-0.3,33.6
		c0,5.7-0.1,11.6,2,16.8c1.1,2.6,2.5,5,4.2,7.1c1,1.2,3.4,5.2,5.4,4.7c1.8-0.4,2.3-6,2.8-7.6c0.9-3.1,2-6.1,3.1-9.2
		c0.7-1.5,1.1-3.2,1.3-4.9c-0.1-1.6-0.4-3.3-1-4.8c-3-9-5.9-18.1-6.8-27.5c-0.4-5.4-0.4-10.8,0-16.1
		C280.1,130.7,277.2,129.1,274.3,127.6z"/>
	<path class="st5" d="M129.6,72.3c0,0-9.4-0.8-18.1,12.5c22.5-5.1,34.6-0.9,34.6-0.9S139.8,71.7,129.6,72.3z"/>
	<path class="st6" d="M188.3,73.9c-3.9-4.6-7.2-9.7-9.9-15.1c4-3.5,4.4-10.6,2.8-15.8c-1.8-5.2-5.8-9.3-10.9-11.2
		c-5.1-1.9-10.6-2.1-15.9-0.6c-6.3,1.6-12.4,5.6-14.9,11.6s-0.3,14.1,5.6,16.8c-2.9,8-6.9,15.9-12.4,22.4
		c15.7,0.1,31.5,0.3,47.2-0.2c2.6-0.1,5.3-0.2,7.4-1.6c1.9-1.3,2.5-4,1.1-5.9C188.5,74.1,188.4,74,188.3,73.9z M169.9,52.2
		c-3,2-6.7,2.3-10,1c-2-0.7-3.6-2.1-4.5-4c-0.8-1.8-0.8-3.9-0.2-5.7c0.6-1.9,1.8-3.6,3.4-4.9c2.1-1.7,13-4.6,15.5,4.3
		C175,46.3,172.7,50.2,169.9,52.2z"/>
	<path class="st7" d="M146,82.1c2.1-7.7,4.8-15.2,8.3-22.4c-6.2-2-10.5-7.7-10.8-14.3c0-5,2.4-9.7,6.4-12.6
		c-4.5,2.1-8.4,5.4-10.3,10c-2.5,6-0.3,14.1,5.6,16.8c-2.9,8-6.9,15.9-12.4,22.4L146,82.1z"/>
	<polygon class="st8" points="71.7,77.4 274.8,77.4 300.7,373.3 100.1,397.5 	"/>
	<path class="st4" d="M222.6,108.3c0,0,18.4-6.8,12.4-30.9h-25.4L222.6,108.3z"/>
	<polygon class="st8" points="71.7,77.4 64.1,82.9 92.7,394.5 100.1,397.5 	"/>
	<path class="st9" d="M300.7,373.3l-17.9-204l-14.3-79.5L89,86.3c0,0-2,233.7,34.6,308.4L300.7,373.3z"/>
	<path class="st10" d="M92.5,92l181.1-3.3c6,89.2,16.5,178,33.8,265.7c-60.3,1.8-120.8,10.3-180,21.6C110.8,316,92.5,145.3,92.5,92z
		"/>
	<path class="st11" d="M214.9,89.8l7.8,18.5c7.6-3.3,12.8-10.6,13.4-18.8L214.9,89.8z"/>
	<path class="st5" d="M149.1,74.6l38.4-1.8c-2.5-3.1-4.8-6.3-6.8-9.7c-4.4,0.4-8.7,1.3-12.9,2.6C161.3,68.1,155,71,149.1,74.6z"/>
	<path class="st6" d="M139.5,108.2l83.1,0.1c4.4-9.5,2.5-20.9-1-31.2c-1.1-3.4-4.1-5.8-7.6-6.1c-28.1-2.8-56.3-2.3-84.3,1.3
		C138.9,77.2,140.4,94.9,139.5,108.2z"/>
	<path class="st7" d="M223.9,85l-85.9,0.2c1.3,5.3,1.9,10.8,1.8,16.3l85-0.4C225.4,95.7,225.2,90.2,223.9,85z"/>
	<path class="st7" d="M177.4,71.2c-5.1,0.1-10.3,0.4-14.9,2.5c-0.8,0.4-1.8,1-1.6,1.9s1,1.1,1.8,1.3c11.7,3.1,23.9,2.9,35.9,2
		c2.4-0.2,14.4,0.2,13.9-3c-0.7-4.3-11.2-3.8-14.1-4C191.4,71.3,184.4,71,177.4,71.2z"/>
	<ellipse class="st7" cx="151.5" cy="75.6" rx="5.8" ry="2.3"/>
	<path class="st6" d="M266,174.4l-32.9,1.7l-6.3-39.9l32.9-1.7L266,174.4z M236.6,171.9l24.8-1.3l-5-31.9l-24.9,1.3L236.6,171.9z"/>
	<path class="st6" d="M276.1,244l-32.9,1.5l-6.1-39.9l32.9-1.5L276.1,244z M246.6,241.4l24.8-1.1l-4.9-31.9l-24.9,1.1L246.6,241.4z"
		/>
	<path class="st6" d="M256.1,315.3l-6.8-39.8l32.9-2.1l6.8,39.8L256.1,315.3z M254,279.3l5.5,31.9l24.8-1.6l-5.5-31.9L254,279.3z"/>
	<path class="st5" d="M111.6,158.7c-1.4,0-2.5-1.1-2.5-2.5c0-1.4,1.1-2.5,2.5-2.5l103.6-3.3c1.4,0,2.5,1,2.6,2.4s-1,2.5-2.4,2.6
		L111.6,158.7L111.6,158.7z"/>
	<path class="st5" d="M113.6,169.1c-1.4,0-2.5-1.1-2.5-2.5c0-1.4,1.1-2.5,2.5-2.5l103.6-3.3c1.4,0,2.5,1,2.6,2.4s-1,2.5-2.4,2.6
		L113.6,169.1L113.6,169.1z"/>
	<path class="st5" d="M115.6,179.6c-1.4,0-2.5-1.1-2.5-2.5c0-1.4,1.1-2.5,2.5-2.5l51.8-1.6c1.4,0,2.5,1,2.6,2.4s-1,2.5-2.4,2.6
		L115.6,179.6L115.6,179.6z"/>
	<path class="st12" d="M109.3,148.2c-1.4,0-2.5-1.1-2.5-2.5c0-1.4,1.1-2.5,2.5-2.5l51.8-1.6c1.4,0,2.5,1,2.6,2.4s-1,2.5-2.4,2.6
		L109.3,148.2L109.3,148.2z"/>
	<path class="st5" d="M125.6,233.7c-1.4,0.1-2.6-1-2.6-2.4c-0.1-1.4,1-2.6,2.4-2.6l103.2-9.7c1.4-0.1,2.6,0.9,2.7,2.3
		s-0.9,2.6-2.3,2.7l-103.2,9.8L125.6,233.7z"/>
	<path class="st5" d="M128.3,244c-1.4,0.1-2.6-1-2.6-2.4c-0.1-1.4,1-2.6,2.4-2.6l103.2-9.7c1.4-0.1,2.6,0.9,2.7,2.3
		s-0.9,2.6-2.3,2.7L128.5,244H128.3z"/>
	<path class="st5" d="M130.9,254.4c-1.4,0.1-2.6-1-2.6-2.4c-0.1-1.4,1-2.6,2.4-2.6l0,0l51.6-4.9c1.4-0.1,2.6,0.9,2.7,2.3
		s-0.9,2.6-2.3,2.7l-51.6,4.9H130.9z"/>
	<path class="st12" d="M122.7,223.4c-1.4,0.1-2.6-1-2.6-2.4c-0.1-1.4,1-2.6,2.4-2.6l51.6-4.9c1.4-0.1,2.6,0.9,2.7,2.3
		s-0.9,2.6-2.3,2.7l-51.6,4.9H122.7z"/>
	<path class="st5" d="M137.9,306.9c-1.4,0.1-2.6-1-2.6-2.4c-0.1-1.4,1-2.6,2.4-2.6l103-11.4c1.4-0.2,2.6,0.8,2.8,2.2
		c0.2,1.4-0.8,2.6-2.2,2.8l-103,11.4L137.9,306.9z"/>
	<path class="st5" d="M140.7,317.1c-1.4,0.1-2.6-1-2.6-2.4c-0.1-1.4,1-2.6,2.4-2.6l0,0l103-11.4c1.4-0.2,2.6,0.8,2.8,2.2
		c0.2,1.4-0.8,2.6-2.2,2.8l0,0l-103,11.4L140.7,317.1z"/>
	<path class="st5" d="M143.5,327.5c-1.4,0.1-2.6-1-2.6-2.4c-0.1-1.4,1-2.6,2.4-2.6l51.5-5.7c1.4-0.2,2.6,0.8,2.8,2.2
		c0.2,1.4-0.8,2.6-2.2,2.8l-51.5,5.7H143.5z"/>
	<path class="st12" d="M134.8,296.6c-1.4,0.1-2.6-1-2.6-2.4c-0.1-1.4,1-2.6,2.4-2.6l0,0l51.5-5.7c1.4-0.2,2.6,0.8,2.8,2.2
		s-0.8,2.6-2.2,2.8l-51.6,5.7C134.9,296.6,134.8,296.6,134.8,296.6z"/>
	<path class="st13" d="M225.2,140.2c7.1,2.4,13.8,5.5,19.2,11.2c7-9,13.3-17.2,23.3-24.3c-9.2,11.1-16.5,23.6-21.6,37.1
		C241.1,154.8,233.9,146.6,225.2,140.2z"/>
	<path class="st13" d="M235.4,213c7.1,2.3,13.8,5.5,19.2,11.2c7-9,13.4-17.2,23.3-24.3c-9.2,11.1-16.5,23.6-21.6,37.1
		C251.2,227.6,244.1,219.3,235.4,213z"/>
	<path class="st13" d="M247.9,281c7.1,2.3,13.8,5.5,19.2,11.2c7-9,13.4-17.2,23.3-24.3c-9.2,11.1-16.5,23.6-21.6,37.1
		C263.8,295.6,256.6,287.3,247.9,281z"/>
	<path class="st10" d="M309.6,387.8l-20,9.7c-0.8,0.4-1.7,1-1.6,1.8c0.1,1.1,1.5,1.4,2.5,1.4l28.3,1v-11.5
		C315.7,389.8,312.6,388.9,309.6,387.8z"/>
	<path class="st10" d="M376.7,406.3c-1.9,3.8-10.7,7.4-16.5,10.2c-0.7,0.3-1.5,0.8-1.4,1.6c0.1,0.9,1.3,1.2,2.2,1.2
		c5.9,0.2,15.2,0.4,23,0.6c2.7,0.1,4.9-2,5-4.7c0-0.8-0.2-1.6-0.5-2.3l-4.5-9.8C381.5,402.7,379.1,407.3,376.7,406.3z"/>
	<path class="st14" d="M374.4,231.5c-10.6,3.6-20.9,3.5-30.6,4.8c-1.7,2.4-8.3,12.1-10,14.5l27.5,3.4c1.5,0.3,3,0.3,4.5,0
		c2.2-0.6,4-2,5.3-3.8C375.2,245.3,376.3,237.8,374.4,231.5z"/>
	<path class="st14" d="M325.4,217.2c3.6-5.5,8.5-9.2,13.5-8.5c-0.4-0.1-4.3,8.9-4.8,9.9c-1.8,3.1-3.8,6-6.1,8.8
		c-2.1,2.5-4.3,4.8-6.8,6.9c-0.7,0.6-2.6,2.8-3.2,1c-0.4-1.1,1.3-4.6,1.6-5.6C321,225.3,323,221.1,325.4,217.2z"/>
	<path class="st15" d="M430.7,165.9L319,264.8l-17.7-20L413,145.9c5.5-4.9,13.9-4.4,18.8,1.1l0,0C436.7,152.5,436.2,161,430.7,165.9
		C430.7,165.9,430.7,165.9,430.7,165.9z"/>
	<polygon class="st16" points="301.2,244.8 273.6,287.1 319,264.8 	"/>
	
		<rect x="293" y="204.2" transform="matrix(0.7488 -0.6628 0.6628 0.7488 -48.1724 292.0317)" class="st17" width="136.5" height="10.8"/>
	<polygon class="st13" points="283.5,271.9 273.6,287.1 289.9,279.1 	"/>
	<path class="st16" d="M412.9,145.9L401.6,156l17.7,20l11.4-10.1c5.4-5.1,5.6-13.5,0.6-18.9C426.4,141.9,418.4,141.4,412.9,145.9
		L412.9,145.9z"/>
	
		<rect x="402.9" y="154.5" transform="matrix(0.7487 -0.6629 0.6629 0.7487 -8.6803 312.8285)" class="st10" width="10.8" height="26.7"/>
	<path class="st18" d="M430.7,165.9c4.4-3.9,5.7-10.2,3.3-15.5c-0.6-1.2-1.3-2.4-2.2-3.4L273.6,287.1l45.4-22.3L430.7,165.9z"/>
	<path class="st19" d="M367.9,223.3c2.6,4.6,2.8,17.2,1.6,22.3c3.9,0.7,8.4-5.6,12.3-4.9c-1.5-4.7-1.9-9.7-1.2-14.5
		c0.2-1.6,0.5-3.4-0.5-4.7c-1.2-1.6-3.8-1.5-5.7-0.7S370,223.5,367.9,223.3z"/>
	<path class="st14" d="M351,295.4c0,0-24.7,23-30,41.3S308.1,386,308.1,386l13.8,2.7L336,345l22.3-23.3
		C358.3,321.7,359.3,298.7,351,295.4z"/>
	<path class="st20" d="M351,295.4c-6.4,6.2-12.4,12.8-17.9,19.8c1.3,7,3,14,4.5,20.9c0.4,1.9,0.9,3.9,1.4,5.8l19.3-20.2
		C358.3,321.7,359.3,298.7,351,295.4z"/>
	<path class="st21" d="M376.8,300.4c-1.3,3.3-10.6,7.5-14.2,8.2c-3.1,0.4-6.3-0.7-8.5-3c-2.2-2.2-4.3-4.9-4.4-8
		c-0.6-45.1,7.8-54.6,15.4-62.1c6.6-6.6,15.6-5.4,20.7,2.3c5.6,8.5,2.6,20,0.4,29.2C383.2,279.5,381.9,287,376.8,300.4z"/>
	<path class="st14" d="M367.4,283.8c8.7-12.2,13.5-26.8,13.6-41.8c-2.9,7.9-7.6,14.4-13.4,20.5c-0.9,1-1.8,1.8-2.9,2.5
		c-3.2,1.9-7.2,1.5-10.8,0.6l-2.4-0.6c-0.6,4.2-1.1,9-1.4,14.6C355.7,281.4,361.5,282.8,367.4,283.8z"/>
	<path class="st14" d="M372,325.8c3.3-10.2,5.7-15.7,5.4-26.8c-17.1,5.2-27.5-3.6-27.5-3.6c-2.7,24.4-3.3,37.5,0,61.9
		c1.9,14.3,16.4,35.1,24.5,47.4c3.5-0.9,5.1-1.6,8.6-2.5c-3-11.4-8.6-31.9-14.6-42.1C369.8,347.3,367.9,338.2,372,325.8z"/>
	<path class="st16" d="M336.3,210.1c2.8-2.3,8-3.5,11.3-2.1c0.9,0.4,1.7,1,1.8,2c0,1.2-1.3,1.9-2.4,2.3c-3.5,1.2-7.2,1.7-10.9,1.6
		C335,213.5,333.5,212.4,336.3,210.1z"/>
	<path class="st14" d="M360.9,265.5c1.1,0.2,2.2,0.1,3.2-0.3c1.6-0.6,2.5-2.1,3.3-3.6c2.6-4.9,4.4-10.2,5.3-15.7
		c0.5-3.3-0.3-7.1-2.8-9.3c-6.4,5.2-10.6,12.7-11.6,20.8c-1.7,0-3.6-0.1-5.4-0.1c-0.6,2.3-1.1,4.8-1.5,7.5L360.9,265.5z"/>
	<path class="st16" d="M324.6,255c-0.8-1.3-2-2.3-3.4-2.9c-1.5-0.5-3.4,0.2-3.7,1.7c-0.5,2.1,2.4,4.2,1.5,6.2c-0.3,0.6-0.8,1-1,1.5
		c-0.5,1.1-0.2,2.4,0.7,3.3c0.9,0.8,1.9,1.4,3.1,1.8c1.5,0.7,3.2,1.1,4.9,1.1c1,0,2.1-0.4,2.8-1.1c1.3-1.5-0.2-3.8-0.9-5.3
		C327.4,259.1,326.1,257,324.6,255z"/>
	<path class="st21" d="M359.7,261.7c3.1-12.3,2.7-15.3,7-23.4c1.6-2.6,4.1-4.7,7-5.7c2.8-1.1,6.3-1,8.6,0.9c1.8,1.6,2.8,3.9,2.9,6.3
		c0,2.4-0.3,4.7-1.1,7c-4.6,15.9-7.1,18.1-16.8,31.5c-13.2-1.2-30.7-4-40-8.9c-1.9-1-2-4.2-0.9-6.1c1.2-2,4.1-2,6.4-1.6
		C340.1,263.1,348.5,261.9,359.7,261.7z"/>
	<polygon class="st21" points="307.5,383.1 323.7,387.4 321.9,392.9 306,388.7 	"/>
	<polygon class="st21" points="383.6,397.8 371.9,403.1 374.4,408.4 385.8,403.1 	"/>
	<path class="st5" d="M318.8,401.7v-3.1l-30.3-0.4c-0.3,0.3-0.5,0.7-0.5,1.1c0.1,1,1.5,1.4,2.5,1.4L318.8,401.7z"/>
	<path class="st5" d="M359.8,416.7c-0.5,0.2-0.9,0.7-0.9,1.3c0.1,0.9,1.3,1.2,2.2,1.2c5.9,0.2,15.2,0.4,23,0.6
		c2.4,0.1,4.5-1.5,4.9-3.9C379.3,416.3,369.5,416.6,359.8,416.7z"/>
	<path class="st16" d="M357.4,218.4c-0.4,3.2,0,8.2,2.2,10.6c1.9,1.9,4.6,2.7,7.3,2.1c2.6-0.6,5-1.8,7.1-3.4
		c3.7-2.7,6.9-5.9,9.6-9.6c2.5-3.4,4.6-7.7,3.3-11.8c-0.9-3-3.5-5.2-6.3-6.5c-3.4-1.8-7.3-2.3-11-1.4
		C360.3,200.8,358.4,210.4,357.4,218.4z"/>
	<path class="st14" d="M381.2,216.9c1.3-5.7-2.3-11.4-8-12.6c-0.2-0.1-0.4-0.1-0.7-0.1c-2.6-0.4-5.2,0.1-7.7,0.5s-5.3,0.5-7.6-0.6
		c-2.1-1-3.7-2.8-4.5-4.9c-0.8-2.1-1.2-4.4-1.1-6.7c0-1.6,0.3-3.2,0.8-4.7c0.6-1.5,1.6-2.8,3.1-3.6c2.7-1.4,6-0.3,7.3,2.3
		c0.7,1.3,0.8,2.8,0.3,4.2c1.8-2.6,4.4-4.6,7.3-5.7c1.8-0.7,4-1,5.4,0.3c0.8,0.9,1.2,2.2,0.9,3.4c-0.3,1.2-0.7,2.3-1.4,3.3
		c2.8-2.8,6.7-4,10.6-3.4c0.4,0,0.8,0.2,1.2,0.5c0.4,0.6,0.5,1.4,0.1,2.1c-0.7,2-2.2,3.7-4.1,4.7c2.8,1.1,5.9,2.4,7.6,4.9
		c1.3,2,1.9,4.4,1.6,6.8c-0.4,4.5-2.8,8.6-6.6,11c-0.8,0.6-1.8,0.9-2.9,0.8C381.8,219.1,381.1,218,381.2,216.9z"/>
	<path class="st16" d="M383,215c0.6-0.3,1.3-0.5,2-0.3c0.7,0.3,1.2,1,1.3,1.8c0.1,0.8-0.1,1.5-0.4,2.2c-1,2.4-2.9,4.4-5.3,5.4
		c-0.5,0.3-1,0.3-1.5,0.1c-1.3-0.8-0.8-4.1-0.3-5.3C379.7,217.2,381.2,215.8,383,215z"/>
	<path class="st14" d="M370.6,212.7c-0.6,1.5-1.7,2.4-2.5,2.1s-1-1.8-0.4-3.2s1.7-2.4,2.5-2.1S371.2,211.3,370.6,212.7z"/>
	<path class="st14" d="M362.4,212.7c-0.6,1.5-1.7,2.4-2.5,2.1s-1-1.8-0.4-3.2s1.7-2.4,2.5-2.1S363,211.3,362.4,212.7z"/>
	<path class="st22" d="M361.2,217.8c-0.3,0.1-0.7,0.2-1,0.4c-0.3,0.2-0.5,0.5-0.5,0.9c0.1,0.3,0.4,0.6,0.7,0.7
		c1.1,0.4,2.4,0.1,3.2-0.8c0.8-0.9,1.1-2.1,0.9-3.2c-0.1-0.3-0.3-1-0.8-0.8s-0.4,0.9-0.6,1.1C362.8,216.9,362.1,217.5,361.2,217.8z"
		/>
	<path class="st22" d="M366.7,223.9c-0.3,0-0.6,0-0.9-0.1c-0.3-0.1-0.4-0.3-0.4-0.6c0.1-0.3,0.3-0.4,0.6-0.4
		c1.7,0.4,3.5-0.7,3.9-2.5c0,0,0-0.1,0-0.1c0-0.3,0.3-0.5,0.6-0.4c0.3,0,0.5,0.3,0.4,0.6l0,0C370.6,222.4,368.8,223.8,366.7,223.9
		L366.7,223.9z"/>
	<path class="st19" d="M307.7,143.4c-2.9,3-6.5,5.3-10.4,6.8c-8,12.6-1.8,14.2,4.8,10.6l7.8-4.3c1-0.4,1.6-1.5,1.3-2.5
		c-0.1-0.2-0.2-0.4-0.3-0.5C309.7,150.3,310.1,145.6,307.7,143.4z"/>
	<path class="st16" d="M277.2,247.1c-1.6,2.3-3.1,4.7-4.3,7.2c-0.3,0.5-0.5,1.1-0.4,1.7c0.2,0.5,0.7,0.9,1.2,1
		c0.5,0.1,1.1,0.1,1.6,0c-0.8,2.8-1.8,7.2-1.7,7.9c0.1,0.6,0.6,1.2,1.2,1.3c0.8,0.1,3-3,4.7-6c1.3-0.5,2.5-1.1,3.7-1.8
		c1.2-0.7,2-1.8,2.5-3.1c0.5-2,0-4.1-1.2-5.8c-0.7-1.1-1.6-1.9-2.7-2.6C280.9,246.1,278.5,246.8,277.2,247.1z"/>
	<path class="st3" d="M306.3,165.4c1.8,28.9-7.8,60.5-20.9,86.5c-3.3,0.4-6.6,0.1-9.7-1c1.6-22.7,6.1-45.1,12-67
		c1-3.7,2.1-7.6,4.6-10.5S302.8,163.9,306.3,165.4z"/>
	<path class="st16" d="M320.5,163.8c-2.7,2-7.6,4.3-11.1,3.8c-2.8-0.5-5.2-2.4-6.3-5c-1-2.5-1.4-5.2-1-7.8c0.3-4.5,1.4-9,3.2-13.2
		c1.7-3.9,4.5-8,9-9.1c3.3-0.8,6.9,0.2,9.8,1.8c3.6,1.8,6.4,4.9,7.9,8.6C335.2,152,327.3,158.7,320.5,163.8z"/>
	<path class="st14" d="M305.1,141.8c5.4,1.6,9.7,0.8,12.4-4.5c1.4,6.2,13.1,27.3,24.5,17.2c-5.6-2.9-5.3-8.7-7.1-14.4
		c-0.7-2.4-2-4.5-3.7-6.2c-1.9-1.8-4.5-2.7-7.1-2.4c1.5-0.5,2.9-1.2,4.3-2c0.5-0.3,1-0.6,1-1.1c0-0.7-0.9-1.2-1.7-1.3
		c-2-0.3-4,0.2-5.6,1.4c-0.6-2.1-2-4-3.9-5.1c-0.5-0.3-1-0.5-1.6-0.6c-0.6-0.1-1.1,0.1-1.5,0.6c-0.2,0.4-0.3,0.9-0.2,1.3
		c0.3,1.7,1.1,3.4,2.3,4.6c-3.8-0.6-7.5,1.4-9.8,4.1s-3.4,6.1-4.5,9.4C303.4,142.7,304.5,142,305.1,141.8z"/>
	<path class="st16" d="M308.4,140.3c0-0.7-0.4-1.4-0.9-1.9c-0.7-0.5-1.6-0.5-2.4-0.2c-0.7,0.3-1.4,0.9-1.8,1.5
		c-1.6,2.1-2.3,4.7-1.9,7.3c0,0.6,0.3,1.1,0.8,1.4c1.5,0.6,4.3-1.5,5.1-2.6C308.3,144.2,308.7,142.2,308.4,140.3z"/>
	<path class="st14" d="M317.9,149.6c-1,1.3-1.2,2.7-0.4,3.2s2.2-0.1,3.2-1.4s1.2-2.7,0.5-3.2S318.9,148.3,317.9,149.6z"/>
	<path class="st14" d="M322.8,156.6c-1,1.3-1.2,2.7-0.4,3.2s2.2-0.1,3.2-1.4s1.2-2.7,0.4-3.2S323.8,155.3,322.8,156.6z"/>
	<path class="st22" d="M318.8,160.3c0.1,0.3,0.2,0.7,0.2,1c0,0.4-0.2,0.7-0.5,0.9c-0.4,0.1-0.8,0-1.1-0.2c-1-0.7-1.5-1.9-1.2-3.1
		c0.4-1.2,1.3-2.1,2.4-2.5c0.3-0.1,1.1-0.3,1.1,0.2c0,0.3-0.6,0.8-0.7,1.1C318.6,158.5,318.6,159.4,318.8,160.3z"/>
	<path class="st22" d="M309.9,158.8c0.2,0.3,0.4,0.5,0.6,0.7c0.2,0.2,0.6,0.2,0.8,0c0.2-0.2,0.2-0.5,0.1-0.6c0,0,0,0-0.1-0.1
		c-0.7-0.6-1.1-1.5-1.1-2.4c0-0.9,0.5-1.7,1.1-2.3c0.2-0.2,0.2-0.5,0-0.7c0,0,0,0,0,0c-0.2-0.2-0.6-0.2-0.8,0
		C308.9,154.7,308.6,157.1,309.9,158.8L309.9,158.8z"/>
	<path class="st14" d="M201.6,358.7c2.2-0.4,4.5-0.5,6.8-0.3c2.3,0.3,4.4,1.5,5.7,3.4c1.4,2.4,1.1,5.4,0.3,8.1
		c-1.4,5.1-3.9,9.9-6.5,14.6c-6,11-12.2,21.8-18.5,32.5c-1.9,0-4.1,0.2-6-0.4c-1.9-0.5-3.4-1.9-4-3.8c-0.3-1.3-0.2-2.7,0.1-4
		l6.9-35.1c0.7-3.8,1.5-7.7,3.9-10.8S198.2,356.9,201.6,358.7z"/>
	<path class="st20" d="M209.4,381.5c-0.2-0.3-0.4-0.7-0.6-1.1c-2.4-4.6-3.8-9.6-4.2-14.8c-0.2-2.5-0.1-4.9,0.2-7.4
		c-1.1,0.1-2.2,0.2-3.3,0.4c-0.5-0.3-1-0.4-1.6-0.5c-1.9,0.5-3.8,1-5.6,1.5c-1.5,0.9-2.9,2-4,3.4c-1.6,2.2-2.7,4.8-3.2,7.4
		c1.4,1.9,2.7,3.9,4.1,5.8c3.8,5.4,8.2,10.3,13,14.8c1.2-2.2,2.4-4.4,3.6-6.6C208.4,383.5,208.9,382.5,209.4,381.5z"/>
	<path class="st20" d="M201.9,388.3c-2-3.3-4.2-6.5-6.6-9.5c-2.2-2.5-5.5-4.9-8.6-3.9l-0.4,0.2l-3.3,16.9c0.6,0.1,1.1,0.3,1.6,0.5
		c3.5,1.9,6.2,5,7.6,8.7c1,2.5,1.7,5.1,2,7.7c3.3-5.7,6.6-11.5,9.8-17.3C203.3,390.5,202.6,389.4,201.9,388.3z"/>
	<path class="st23" d="M132.8,318.2c14.2,16.3,30.4,30.8,48.2,43c-1.7,2.1-3.6,4.5-6.3,4.8c-2.2,0.3-4.3-0.9-6.3-2
		c-8.9-5-17.9-10.2-25-17.5C136.2,339,132.3,328.7,132.8,318.2z"/>
	<path class="st24" d="M132.8,318.2c-0.5,10.5,3.4,20.8,10.6,28.4c2.3,2.3,4.7,4.4,7.4,6.4c0-1.9,0.1-3.9,0-5.8
		c-0.1-3.6-0.3-7.2-0.6-10.8C144.1,330.6,138.3,324.5,132.8,318.2z"/>
	<path class="st23" d="M116.2,313.6c-4.9,1.9-9.8,3.8-14.6,6c-1.8,0.8-3.6,1.7-4.6,3.2c-1.3,2-0.6,4.5,0.2,6.7
		c6.1,18.6,13,37,20.6,55.3c0.5,1.1,6.9,17.1,8.1,17.3c6.6,1,8-13.9,14.7-14.4c1.8,0,3.6-0.4,5.1-1.3c1.8-1.2,2.4-3.2,2.9-5.1
		c2.1-8.6-5.9-51.9-11.3-60.1S126.1,309.9,116.2,313.6z"/>
	<path class="st24" d="M145.9,368c0.8,0.3,1.7,0.5,2.6,0.5c-0.4-3.8-1-8.1-1.8-12.6c-4.4-0.6-8.7-1.8-12.9-3.4
		c-2.5-1-4.9-2.1-7.2-3.3c-8-4.2-15.2-9.8-22-15.7c2.7,4.9,5.3,9.8,9,14c3.5,3.6,7.3,6.8,11.5,9.4
		C131.8,361.3,138.5,365.4,145.9,368z"/>
	<path class="st19" d="M120.5,304.8c-0.9,3.8-1,7.7-0.4,11.6c0.3,1.6-0.8,3.2-2.5,3.4c-0.2,0-0.5,0-0.7,0c-1.5-0.1-3.1-0.3-4.6-0.7
		c-0.6-0.1-1.2-0.3-1.6-0.7c-0.6-0.6-0.9-1.4-0.9-2.3c-0.6-3.7-1.2-7.5-1.9-11.2c-0.3-1-0.2-2.2,0.2-3.1c0.7-1.3,2.4-1.5,3.8-1.6
		c1.6-0.1,3.2,0.1,4.7,0.7C118.1,301.6,120.9,303.3,120.5,304.8z"/>
	<path class="st16" d="M131.3,295.3c0.9,3.3,1.3,8.6-0.4,11.8c-1.5,2.4-4.1,4-7,4.1c-2.7,0-5.3-0.6-7.7-1.8
		c-4.1-1.9-7.9-4.5-11.2-7.7c-3.1-3-5.9-7-5.3-11.6c0.4-3.4,2.7-6.3,5.2-8.5c3-2.7,6.8-4.2,10.8-4.3
		C125.5,277.4,129,287.1,131.3,295.3z"/>
	<path class="st14" d="M117.1,292.7c0.8,1.4,2.1,2.1,2.8,1.6s0.7-2.1-0.1-3.5s-2.1-2.1-2.8-1.5S116.3,291.3,117.1,292.7z"/>
	<path class="st14" d="M125.4,290.6c0.8,1.4,2.1,2.1,2.8,1.5c0.7-0.5,0.7-2.1-0.1-3.5s-2.1-2.1-2.8-1.6S124.6,289.2,125.4,290.6z"/>
	<path class="st22" d="M127.4,295.6c0.3,0,0.7,0.1,1,0.1c0.4,0.1,0.6,0.4,0.6,0.8c0,0.4-0.3,0.7-0.6,0.9c-1,0.7-2.3,0.7-3.3,0
		c-1-0.8-1.5-1.9-1.4-3.1c0-0.4,0.2-1.1,0.6-1s0.6,0.8,0.8,1.1C125.6,295.1,126.5,295.5,127.4,295.6z"/>
	<path class="st22" d="M122.8,303.4c0.3-0.1,0.6-0.2,0.9-0.3c0.3-0.1,0.4-0.5,0.3-0.7c-0.1-0.2-0.4-0.4-0.6-0.3c0,0,0,0-0.1,0
		c-1.4,0.8-3.3,0.3-4.1-1.1c-0.1-0.2-0.2-0.4-0.3-0.6c-0.1-0.2-0.3-0.4-0.6-0.3c0,0,0,0-0.1,0c-0.3,0.1-0.4,0.4-0.3,0.7
		C118.7,302.8,120.8,304,122.8,303.4z"/>
	<path class="st14" d="M105.9,302.3c3.4-4.2,3.7-10.1,0.6-14.6c5.7-0.8,11.3-2.3,16.8-4.3c2.4-0.9,4.9-2,6-4.3
		c0.8-1.7,0.9-3.7,0.4-5.5c-1.3-5.5-5.4-9.8-9.8-13.4c0.8,2.3,1.6,4.6,2.3,7c-2.2-2.3-4.8-4.2-7.6-5.6c1.5,3.1,2.8,6.4,3.7,9.8
		c-5.4-0.5-11.1,0.1-15.8,2.7s-8.4,7.5-8.5,13c0,3.4,1.2,6.7,3.4,9.4C99.3,299.1,102.8,300.8,105.9,302.3z"/>
	<path class="st16" d="M105,298.2c-0.7-0.2-1.4-0.1-2,0.2c-0.7,0.5-1.1,1.3-1,2.2c0.1,0.8,0.3,1.6,0.8,2.3c1.4,2.3,3.6,3.9,6.2,4.4
		c0.5,0.2,1.1,0.1,1.5-0.3c1.1-1.1,0.2-4.6-0.6-5.7C108.7,299.6,107,298.5,105,298.2z"/>
	<path class="st24" d="M105.4,352.8c7,5.9,14.7,10.9,22.8,15.1c6.6,3.3,13.6,5.7,20.9,7c-0.1-2.7-0.4-6-0.9-9.6
		c-3.2-1.1-6.4-2.4-9.5-3.7c-13.9-6-26.9-14-38.6-23.7C101.8,342.8,103.5,347.8,105.4,352.8z"/>
	<path class="st23" d="M111.8,331.6c2.1,8.8,9.7,16.2,18.6,20.9s19.3,7.1,29.6,9c0.6,0.8,1,1.7,1.2,2.7c0.3,1-0.1,2.1-1,2.8
		c-0.9,0.5-1.9,0.7-2.8,0.6c-13,0.3-25.8-3.1-37-9.7c-10.7-6.5-18.9-15.9-23.2-26.4c-0.7-1.5-1.1-3.2-1.1-4.9c0-1.8,0.9-3.4,2.4-4.4
		c2.6-1.7,6.5-0.8,8.8,1.2S111.1,328.9,111.8,331.6z"/>
	<path class="st25" d="M209.9,349.5c0.4,1.9,0.4,7.2,0.7,9.6c-18.2,6.6-37.2,9.2-56.7,14.6l-9.2,2.6c-1.1,0.4-2.3,0.5-3.4,0.1
		c-1-0.5-1.3-2.3-0.3-2.8c19.8-8.1,38.8-18.2,59.1-24.9c1.5-0.6,3.1-0.9,4.7-1C206.5,347.7,209.5,347.9,209.9,349.5z"/>
	<path class="st25" d="M163.8,328.2l47.2-6.9c1.9-0.3,3.7,1,4,2.9c0.1,0.4,0.1,0.8,0,1.2c-2.1,11.2-3.5,22.4-4.3,33.8
		c-16.7,2.2-32.7,4.2-52,7.2c1.3-13,1.9-23.4,2.2-34.7C160.9,329.9,162.1,328.5,163.8,328.2z"/>
	<path class="st26" d="M194.4,344.6c-0.6,3.2-3.2,5.5-5.9,5s-4.5-3.5-3.9-6.7s3.2-5.5,5.9-5S194.9,341.4,194.4,344.6z"/>
	<path class="st14" d="M131.3,407.3c5.8,2.1,12.7,1.5,18.5-0.4c13.4-4.4,24.1-14.4,34.3-24.2c7.1,10.2,15.6,20,22.7,30.2
		c1.5,2.2,3.2,4.5,5.6,5.4s8.9-6.7,8.6-8.8c-0.4-2-1.2-4-2.3-5.7c-6-11-12.6-21.6-19.8-31.8c-2.7-3.9-5.7-8-10.2-9.4
		c-4.7-1.5-9.7,0.4-14.3,2.1c-14.8,5.6-26.8,7.4-43.2,12.5C112.4,383.2,122,403.9,131.3,407.3z"/>
	<path class="st10" d="M240.6,414.6c0.6,0.1,1.4,0.4,1.6,1s-0.7,1.4-1.4,1.7c-7.4,3.1-15.4,4.2-23.3,5.3c-1,0.2-2,0.2-2.9-0.2
		c-1-0.6-1.8-1.6-2.1-2.7c-0.5-1.1-0.8-2.3-0.7-3.5c0.4-1.6,1.6-3,3.1-3.7c1.1-0.6,3-1.8,4.3-1.9c1.6,0.1,3.1,0.4,4.6,0.9
		c3.6,0.7,7.3,1.3,10.9,2L240.6,414.6z"/>
	<path class="st10" d="M176.8,418c-0.4,1.1-0.5,2.2-0.1,3.3c0.4,0.9,1.3,1.6,2.2,1.9c1,0.3,2,0.4,3,0.4c5.3,0.2,10.7,0.2,16,0.2
		c1.5,0,3-0.1,4.5-0.3c0.8-0.1,1.9-0.6,1.7-1.5c-0.1-0.6-0.7-0.9-1.2-1.2c-4-1.8-8.1-3.5-12.2-5.1c-2.1-0.8-4.2-1.6-6.3-2.3
		c-1.2-0.4-3.5-1.7-4.8-1.2C178.1,412.9,177.3,416.5,176.8,418z"/>
</g>
<g id="DESIGNED_BY_FREEPIK" class="st27">
	<path d="M330.3,441.5c-0.3,0.3-0.5,0.6-0.7,1l-0.3-0.2c0-0.2-0.2-0.3-0.4-0.3c-0.2,0-0.4,0.2-0.4,0.4c0,0.2,0.2,0.4,0.4,0.4h0.1
		l0.3,0.2c-0.2,0.4-0.3,0.8-0.4,1.1l0.5,0.1c0.2-0.9,0.6-1.7,1.2-2.3L330.3,441.5z"/>
	<path d="M334,440h-0.3l0-0.4c0.1-0.1,0.2-0.3,0.2-0.4c0-0.3-0.3-0.4-0.5-0.4c-0.3,0-0.4,0.3-0.4,0.5c0,0.2,0.1,0.3,0.3,0.4v0.4
		c-0.5,0.1-0.9,0.2-1.4,0.4l0.2,0.5c0.9-0.4,2-0.6,3-0.3l0.1-0.5C334.7,440,334.3,440,334,440z"/>
	<path d="M338.3,441.7c0.2,0,0.4-0.2,0.3-0.5c0-0.2-0.2-0.4-0.4-0.3c0,0,0,0,0,0c-0.2,0-0.4,0.2-0.4,0.4l-0.3,0.2
		c-0.3-0.3-0.6-0.5-0.9-0.8l-0.3,0.4c0.7,0.5,1.3,1.1,1.7,1.9l0.5-0.2c-0.2-0.4-0.4-0.7-0.6-1l0.3-0.2L338.3,441.7z"/>
	<path d="M333.6,446.8h-0.8c-0.5,0-1.1,0-1.6-0.1c-0.3,0-0.6-0.1-0.8-0.2c1.1,2,3.6,2.6,5.6,1.5c0.9-0.5,1.6-1.4,1.9-2.4
		c-0.5,0.3-1,0.6-1.6,0.7C335.4,446.6,334.5,446.7,333.6,446.8z"/>
	<path d="M334,441c-2.2,0-4,1.7-4,3.9c0,0.3,0,0.6,0.1,0.8c1.1,0.5,2.3,0.6,3.5,0.5c1.6,0,3.1-0.5,4.4-1.4c0-0.1,0-0.3,0-0.4
		C337.7,442.4,336,441,334,441z M332.6,445.3c-0.7,0-1.2-0.5-1.2-1.2c0-0.7,0.5-1.2,1.2-1.2c0.7,0,1.2,0.5,1.2,1.2c0,0,0,0,0,0
		C333.8,444.8,333.3,445.3,332.6,445.3C332.6,445.3,332.6,445.3,332.6,445.3L332.6,445.3z M335.7,444.7c-0.5,0-0.9-0.4-0.9-0.9
		c0-0.5,0.4-0.9,0.9-0.9c0.5,0,0.9,0.4,0.9,0.9C336.6,444.3,336.2,444.7,335.7,444.7z"/>
	<path d="M344.5,442.3c-0.3-0.1-0.6-0.2-0.9-0.2c-0.4,0-0.5,0.2-0.5,0.7v0.6h1.5v1.1h-1.5v3.6h-1.3v-3.6h-0.9v-1.1h0.9v-0.6
		c-0.1-0.9,0.5-1.7,1.4-1.8c0.1,0,0.2,0,0.3,0c0.3,0,0.7,0.1,1,0.2L344.5,442.3z"/>
	<path d="M347.6,444.5h-0.4c-0.5,0-1,0.4-1,0.9c0,0.1,0,0.1,0,0.2v2.6H345v-4.7h1.2v0.5c0.3-0.4,0.8-0.7,1.3-0.6
		c0.3,0,0.5,0.1,0.7,0.2L347.6,444.5z"/>
	<path d="M352.7,445.7c0,0.1,0,0.3,0,0.4h-3.4c0.1,0.6,0.6,1,1.2,1c0.4,0,0.9-0.2,1.2-0.5l0.7,0.8c-0.5,0.5-1.3,0.7-2,0.7
		c-1.4,0-2.5-1.1-2.5-2.5s1.1-2.5,2.5-2.5c1.3,0,2.3,1,2.3,2.3C352.7,445.6,352.7,445.6,352.7,445.7z M349.3,445.3h2.1
		c0-0.6-0.5-1-1-1C349.8,444.2,349.3,444.7,349.3,445.3z"/>
	<path d="M357.8,445.7c0,0.1,0,0.3,0,0.4h-3.4c0.1,0.6,0.6,1,1.2,1c0.4,0,0.9-0.2,1.2-0.5l0.8,0.8c-0.6,0.5-1.3,0.7-2,0.7
		c-1.4,0-2.5-1.1-2.5-2.5s1.1-2.5,2.5-2.5c1.3,0,2.3,1,2.3,2.3C357.8,445.6,357.8,445.7,357.8,445.7z M354.4,445.3h2.1
		c-0.1-0.6-0.6-1-1.2-0.9C354.8,444.4,354.4,444.8,354.4,445.3z"/>
	<path d="M363.3,445.7c0.1,1.3-0.9,2.4-2.2,2.5c0,0-0.1,0-0.1,0c-0.5,0-1.1-0.2-1.4-0.6v2.4h-1.3v-6.7h1.3v0.5
		c0.3-0.4,0.9-0.7,1.4-0.6c1.3,0,2.3,1.1,2.3,2.4C363.3,445.6,363.3,445.7,363.3,445.7z M359.5,445.7c0,0.7,0.6,1.2,1.3,1.1
		c0.7,0,1.2-0.6,1.1-1.3c0-0.6-0.6-1.1-1.2-1.1C360.1,444.4,359.5,445,359.5,445.7C359.5,445.7,359.5,445.7,359.5,445.7z"/>
	<path d="M365.3,441.8c0,0.4-0.3,0.8-0.8,0.8c0,0,0,0,0,0c-0.4,0-0.8-0.3-0.8-0.8c0,0,0,0,0,0c0-0.4,0.3-0.8,0.8-0.8c0,0,0,0,0,0
		C364.9,441,365.3,441.3,365.3,441.8C365.3,441.8,365.3,441.8,365.3,441.8z M365.1,448.1h-1.3v-4.7h1.3V448.1z"/>
	<path d="M367.3,445l1.8-1.7h1.6l-2.3,2.2l2.3,2.5h-1.6l-1.8-1.9v1.9H366v-7h1.3L367.3,445z"/>
	<path d="M280.4,448v-0.7c-0.4,0.5-0.9,0.8-1.6,0.8c-1.2,0-2.1-0.9-2.1-2.5s0.9-2.5,2.1-2.5c0.6,0,1.2,0.3,1.6,0.8v-2.5h0.7v6.5
		H280.4z M280.4,446.7v-2.1c-0.3-0.5-0.8-0.7-1.4-0.8c-0.9,0-1.5,0.8-1.5,1.8s0.6,1.8,1.5,1.8C279.5,447.5,280,447.2,280.4,446.7
		L280.4,446.7z"/>
	<path d="M282,445.7c-0.1-1.3,0.9-2.4,2.2-2.4c0,0,0,0,0.1,0c1.3,0,2.3,1,2.3,2.3c0,0.1,0,0.1,0,0.2v0.2h-3.8c0,0.9,0.8,1.6,1.7,1.6
		c0,0,0,0,0,0c0.5,0,1.1-0.2,1.4-0.6l0.3,0.5c-0.5,0.5-1.2,0.7-1.9,0.7c-1.3,0-2.3-1-2.4-2.3C282,445.8,282,445.8,282,445.7z
		 M284.3,443.9c-0.8,0-1.5,0.7-1.5,1.6h3.1C285.9,444.6,285.2,443.9,284.3,443.9C284.3,443.9,284.3,443.9,284.3,443.9L284.3,443.9z"
		/>
	<path d="M287.1,447.4l0.4-0.5c0.4,0.4,1,0.7,1.5,0.7c0.7,0,1.1-0.3,1.1-0.8c0-1.1-2.9-0.4-2.9-2.2c0-0.7,0.6-1.4,1.7-1.4
		c0.6,0,1.3,0.2,1.7,0.7l-0.3,0.5c-0.4-0.4-0.9-0.6-1.4-0.6c-0.6,0-1,0.3-1,0.7c0,1,2.9,0.4,2.9,2.2c0,0.8-0.6,1.4-1.8,1.4
		C288.3,448.2,287.6,447.9,287.1,447.4z"/>
	<path d="M291.6,442.2c0-0.3,0.2-0.5,0.5-0.5c0.3,0,0.5,0.2,0.5,0.5c0,0.3-0.2,0.5-0.5,0.5c0,0,0,0,0,0
		C291.8,442.7,291.6,442.5,291.6,442.2z M291.8,448v-4.7h0.7v4.6L291.8,448z"/>
	<path d="M293.7,449.2l0.4-0.5c0.4,0.4,0.9,0.7,1.5,0.6c0.7,0.1,1.4-0.4,1.5-1.2c0-0.1,0-0.2,0-0.2v-0.7c-0.4,0.5-0.9,0.8-1.6,0.8
		c-1.2,0-2.1-1-2.1-2.2c0-0.1,0-0.2,0-0.3c0-1.5,0.9-2.4,2.1-2.4c0.6,0,1.2,0.3,1.6,0.8v-0.7h0.7v4.5c0,1.5-1.1,2-2.2,2
		C294.9,450,294.2,449.7,293.7,449.2z M297.1,446.7v-2c-0.3-0.5-0.8-0.7-1.4-0.8c-0.9,0-1.5,0.8-1.5,1.8s0.6,1.8,1.5,1.8
		C296.2,447.5,296.8,447.2,297.1,446.7L297.1,446.7z"/>
	<path d="M302.1,448v-3c0-0.8-0.4-1.1-1-1.1c-0.5,0-1.1,0.3-1.4,0.7v3.3H299v-4.7h0.7v0.7c0.4-0.5,1-0.8,1.7-0.8
		c0.7-0.1,1.4,0.4,1.5,1.1c0,0.1,0,0.2,0,0.4v3.3H302.1z"/>
	<path d="M303.8,445.7c-0.1-1.3,0.9-2.4,2.2-2.4c0,0,0,0,0.1,0c1.3,0,2.3,1,2.3,2.3c0,0.1,0,0.1,0,0.2v0.2h-3.8
		c0,0.9,0.8,1.6,1.7,1.6c0,0,0,0,0,0c0.5,0,1.1-0.2,1.4-0.6l0.4,0.5c-0.5,0.5-1.2,0.7-1.9,0.7c-1.3,0-2.3-1-2.4-2.3
		C303.8,445.8,303.8,445.8,303.8,445.7z M306.1,443.9c-0.8,0-1.5,0.7-1.5,1.6h3.1C307.7,444.6,307,443.9,306.1,443.9
		C306.2,443.8,306.1,443.8,306.1,443.9z"/>
	<path d="M312.7,448v-0.7c-0.4,0.5-1,0.8-1.6,0.8c-1.2,0-2.1-0.9-2.1-2.5s0.9-2.5,2.1-2.5c0.6,0,1.2,0.3,1.6,0.8v-2.5h0.7v6.5H312.7
		z M312.7,446.7v-2.1c-0.3-0.5-0.8-0.7-1.4-0.8c-0.9,0-1.5,0.8-1.5,1.8s0.6,1.8,1.5,1.8C311.8,447.5,312.3,447.2,312.7,446.7
		L312.7,446.7z"/>
	<path d="M316.9,448v-6.5h0.7v2.5c0.4-0.5,0.9-0.8,1.6-0.8c1.2,0,2.1,1,2.1,2.2c0,0.1,0,0.1,0,0.2c0,1.5-0.9,2.5-2.1,2.5
		c-0.6,0-1.2-0.3-1.6-0.8v0.7H316.9z M319,447.5c1,0,1.5-0.8,1.5-1.8s-0.6-1.8-1.5-1.8c-0.6,0-1.1,0.3-1.4,0.8v2.1
		C317.9,447.2,318.4,447.5,319,447.5L319,447.5z"/>
	<path d="M322,449.2c0.1,0.1,0.3,0.1,0.4,0.1c0.3,0,0.6-0.2,0.7-0.5l0.3-0.7l-2-4.7h0.8l1.6,3.8l1.5-3.8h0.8l-2.3,5.6
		c-0.2,0.6-0.8,1-1.4,1c-0.2,0-0.4,0-0.5-0.1L322,449.2z"/>
</g>
</svg>
